REM DIRINDEX 1\2,1\4,1\5,1\6,1\7,1\3\8,1\3\9,1\3\10
REM DIRNAME folder01,folder02,folder03,folder04,folder05,folder06,folder07,folder08,folder09,folder10
TITLE ""
FILE "DB4500_5th_6C_34.mp3" MP3
  TRACK 01 AUDIO
    TITLE "8:cjc113_4643"
    INDEX 01 00:00:00
  TRACK 02 AUDIO
    TITLE "0:"
    INDEX 01 00:02:47
  TRACK 03 AUDIO
    TITLE "9:cjc113_4644"
    INDEX 01 00:02:55
  TRACK 04 AUDIO
    TITLE "0:"
    INDEX 01 00:04:25
  TRACK 05 AUDIO
    TITLE "10:cjc113_4645"
    INDEX 01 00:04:33
  TRACK 06 AUDIO
    TITLE "0:"
    INDEX 01 00:08:21
  TRACK 07 AUDIO
    TITLE "8:cjc113_4646"
    INDEX 01 00:08:54
  TRACK 08 AUDIO
    TITLE "0:"
    INDEX 01 00:09:73
  TRACK 09 AUDIO
    TITLE "9:cjc113_4647"
    INDEX 01 00:10:04
  TRACK 10 AUDIO
    TITLE "0:"
    INDEX 01 00:11:31
  TRACK 11 AUDIO
    TITLE "10:cjc113_4648"
    INDEX 01 00:11:44
  TRACK 12 AUDIO
    TITLE "0:"
    INDEX 01 00:15:19
  TRACK 13 AUDIO
    TITLE "8:cjc113_4649"
    INDEX 01 00:15:50
  TRACK 14 AUDIO
    TITLE "0:"
    INDEX 01 00:17:00
  TRACK 15 AUDIO
    TITLE "9:cjc113_4650"
    INDEX 01 00:17:10
  TRACK 16 AUDIO
    TITLE "0:"
    INDEX 01 00:18:27
  TRACK 17 AUDIO
    TITLE "10:cjc113_4651"
    INDEX 01 00:18:39
  TRACK 18 AUDIO
    TITLE "0:"
    INDEX 01 00:21:39
  TRACK 19 AUDIO
    TITLE "8:cjc113_4652"
    INDEX 01 00:21:72
  TRACK 20 AUDIO
    TITLE "0:"
    INDEX 01 00:23:03
  TRACK 21 AUDIO
    TITLE "9:cjc113_4653"
    INDEX 01 00:23:06
  TRACK 22 AUDIO
    TITLE "0:"
    INDEX 01 00:24:29
  TRACK 23 AUDIO
    TITLE "10:cjc113_4654"
    INDEX 01 00:24:35
  TRACK 24 AUDIO
    TITLE "0:"
    INDEX 01 00:28:70
  TRACK 25 AUDIO
    TITLE "8:cjc113_4655"
    INDEX 01 00:29:29
  TRACK 26 AUDIO
    TITLE "0:"
    INDEX 01 00:30:36
  TRACK 27 AUDIO
    TITLE "9:cjc113_4656"
    INDEX 01 00:30:46
  TRACK 28 AUDIO
    TITLE "0:"
    INDEX 01 00:32:00
  TRACK 29 AUDIO
    TITLE "10:cjc113_4657"
    INDEX 01 00:32:03
  TRACK 30 AUDIO
    TITLE "0:"
    INDEX 01 00:34:28
  TRACK 31 AUDIO
    TITLE "8:cjc113_4658"
    INDEX 01 00:34:59
  TRACK 32 AUDIO
    TITLE "0:"
    INDEX 01 00:36:13
  TRACK 33 AUDIO
    TITLE "9:cjc113_4659"
    INDEX 01 00:36:21
  TRACK 34 AUDIO
    TITLE "0:"
    INDEX 01 00:37:46
  TRACK 35 AUDIO
    TITLE "10:cjc113_4660"
    INDEX 01 00:37:56
  TRACK 36 AUDIO
    TITLE "0:"
    INDEX 01 00:41:22
  TRACK 37 AUDIO
    TITLE "8:cjc113_4661"
    INDEX 01 00:41:53
  TRACK 38 AUDIO
    TITLE "0:"
    INDEX 01 00:42:63
  TRACK 39 AUDIO
    TITLE "9:cjc113_4662"
    INDEX 01 00:42:72
  TRACK 40 AUDIO
    TITLE "0:"
    INDEX 01 00:44:09
  TRACK 41 AUDIO
    TITLE "10:cjc113_4663"
    INDEX 01 00:44:14
  TRACK 42 AUDIO
    TITLE "0:"
    INDEX 01 00:47:58
  TRACK 43 AUDIO
    TITLE "8:cjc113_4664"
    INDEX 01 00:48:18
  TRACK 44 AUDIO
    TITLE "0:"
    INDEX 01 00:49:43
  TRACK 45 AUDIO
    TITLE "9:cjc113_4665"
    INDEX 01 00:49:53
  TRACK 46 AUDIO
    TITLE "0:"
    INDEX 01 00:50:72
  TRACK 47 AUDIO
    TITLE "10:cjc113_4666"
    INDEX 01 00:51:05
  TRACK 48 AUDIO
    TITLE "0:"
    INDEX 01 00:53:33
  TRACK 49 AUDIO
    TITLE "8:cjc113_4667"
    INDEX 01 00:53:64
  TRACK 50 AUDIO
    TITLE "0:"
    INDEX 01 00:55:04
  TRACK 51 AUDIO
    TITLE "9:cjc113_4668"
    INDEX 01 00:55:12
  TRACK 52 AUDIO
    TITLE "0:"
    INDEX 01 00:56:27
  TRACK 53 AUDIO
    TITLE "10:cjc113_4669"
    INDEX 01 00:56:33
  TRACK 54 AUDIO
    TITLE "0:"
    INDEX 01 01:00:19
  TRACK 55 AUDIO
    TITLE "8:cjc113_4670"
    INDEX 01 01:00:51
  TRACK 56 AUDIO
    TITLE "0:"
    INDEX 01 01:01:60
  TRACK 57 AUDIO
    TITLE "9:cjc113_4671"
    INDEX 01 01:01:70
  TRACK 58 AUDIO
    TITLE "0:"
    INDEX 01 01:03:27
  TRACK 59 AUDIO
    TITLE "10:cjc113_4672"
    INDEX 01 01:03:31
  TRACK 60 AUDIO
    TITLE "0:"
    INDEX 01 01:06:45
  TRACK 61 AUDIO
    TITLE "8:cjc113_4673"
    INDEX 01 01:07:02
  TRACK 62 AUDIO
    TITLE "0:"
    INDEX 01 01:08:19
  TRACK 63 AUDIO
    TITLE "9:cjc113_4674"
    INDEX 01 01:08:27
  TRACK 64 AUDIO
    TITLE "0:"
    INDEX 01 01:09:36
  TRACK 65 AUDIO
    TITLE "10:cjc113_4675"
    INDEX 01 01:09:46
  TRACK 66 AUDIO
    TITLE "0:"
    INDEX 01 01:14:17
  TRACK 67 AUDIO
    TITLE "8:cjc113_4676"
    INDEX 01 01:14:45
  TRACK 68 AUDIO
    TITLE "0:"
    INDEX 01 01:15:64
  TRACK 69 AUDIO
    TITLE "9:cjc113_4677"
    INDEX 01 01:15:74
  TRACK 70 AUDIO
    TITLE "0:"
    INDEX 01 01:17:22
  TRACK 71 AUDIO
    TITLE "10:cjc113_4678"
    INDEX 01 01:17:32
  TRACK 72 AUDIO
    TITLE "0:"
    INDEX 01 01:21:61
  TRACK 73 AUDIO
    TITLE "8:cjc113_4679"
    INDEX 01 01:22:17
  TRACK 74 AUDIO
    TITLE "0:"
    INDEX 01 01:23:34
  TRACK 75 AUDIO
    TITLE "9:cjc113_4680"
    INDEX 01 01:23:38
  TRACK 76 AUDIO
    TITLE "0:"
    INDEX 01 01:24:61
  TRACK 77 AUDIO
    TITLE "10:cjc113_4681"
    INDEX 01 01:24:73
  TRACK 78 AUDIO
    TITLE "0:"
    INDEX 01 01:26:66
  TRACK 79 AUDIO
    TITLE "8:cjc113_4682"
    INDEX 01 01:27:20
  TRACK 80 AUDIO
    TITLE "0:"
    INDEX 01 01:28:31
  TRACK 81 AUDIO
    TITLE "9:cjc113_4683"
    INDEX 01 01:28:39
  TRACK 82 AUDIO
    TITLE "0:"
    INDEX 01 01:30:34
  TRACK 83 AUDIO
    TITLE "10:cjc113_4684"
    INDEX 01 01:30:42
  TRACK 84 AUDIO
    TITLE "0:"
    INDEX 01 01:33:34
  TRACK 85 AUDIO
    TITLE "8:cjc113_4685"
    INDEX 01 01:33:66
  TRACK 86 AUDIO
    TITLE "0:"
    INDEX 01 01:35:10
  TRACK 87 AUDIO
    TITLE "9:cjc113_4686"
    INDEX 01 01:35:22
  TRACK 88 AUDIO
    TITLE "0:"
    INDEX 01 01:37:21
  TRACK 89 AUDIO
    TITLE "10:cjc113_4687"
    INDEX 01 01:37:24
  TRACK 90 AUDIO
    TITLE "0:"
    INDEX 01 01:41:48
